<?xml version="1.0" encoding="UTF-8" standalone="no"?>
<!-- Created with Inkscape (http://www.inkscape.org/) -->

<svg
   version="1.1"
   id="svg1"
   width="99.999992"
   height="99.394173"
   viewBox="0 0 99.999992 99.394173"
   xmlns="http://www.w3.org/2000/svg"
   xmlns:svg="http://www.w3.org/2000/svg">
  <defs
     id="defs1" />
  <path
     style="fill:#fdad3c;fill-opacity:1;stroke-width:1"
     d="m 15.456971,99.365478 c -3.17991,-0.24643 -5.92103,-1.15584 -8.34213,-2.76763 -3.53622,-2.35416 -5.857445,-5.84776 -6.843426,-10.29982 L 0,85.072488 v -35.60516 c 0,-33.85213 0.01069,-35.65772 0.217177,-36.6726 0.461498,-2.26828 1.207892,-4.1394899 2.314659,-5.8028599 1.372675,-2.063 3.491655,-3.951575 5.707875,-5.087234 2.54152,-1.30235299 4.19721,-1.67395399 8.11942,-1.82230799 3.26113,-0.12335 66.15811,-0.101951 68.4437,0.02329 1.97269,0.108092 3.68271,0.455463 5.2808,1.07273599 5.23357,2.021512 8.91418,6.653726 9.76322,12.2874459 0.15196,1.00826 0.171189,5.98394 0.14116,36.50731 l -0.0348,35.33995 -0.26894,1.16667 c -0.77188,3.34832 -2.18361,5.95473 -4.45965,8.23365 -2.21142,2.21421 -5.18704,3.72752 -8.67765,4.41319 -1.25676,0.24687 -1.4348,0.24818 -35.90588,0.26448 -19.05357,0.009 -34.88644,-0.002 -35.18415,-0.0256 z"
     id="path1" />
  <path
     d="m 86.301631,79.643238 c 0.78404,-0.46315 0.72652,1.16879 0.72652,-20.61356 v -19.75072 l -0.40898,-0.40898 -0.40898,-0.40898 h -7.59015 -7.59015 v 18.82503 18.82502 h -1.65396 -1.65396 v -28.95926 c 0,-28.24467 -0.006,-28.96758 -0.22836,-29.2962 -0.49426,-0.72926 0.62462,-0.68555 -17.53817,-0.68506 -16.47352,4.8e-4 -16.63963,0.003 -17.03392,0.24321 -0.80228,0.48913 -0.74456,-1.82756 -0.74456,29.88454 v 28.81277 h -1.62389 -1.62388 v -18.82502 -18.82503 h -7.46381 c -8.18892,0 -7.97112,-0.0187 -8.35199,0.71779 -0.1609,0.31115 -0.18246,2.66431 -0.18246,19.91155 0,21.60457 -0.0587,20.0162 0.75763,20.51392 0.37967,0.2315 0.89162,0.23482 36.33256,0.23526 33.06188,3.6e-4 35.9742,-0.0153 36.28051,-0.19628 z m -42.45676,-10.0337 c 0,-7.13242 -0.0117,-7.01247 0.71778,-7.38968 0.53659,-0.27748 10.30756,-0.27212 10.84528,0.006 0.70461,0.36437 0.70628,0.38195 0.70628,7.44599 v 6.43925 h -6.13467 -6.13467 z m -24.53508,0.45353 c -0.16341,-0.0827 -0.42053,-0.33348 -0.57137,-0.55731 -0.25395,-0.37684 -0.27426,-0.53524 -0.27426,-2.13933 0,-1.87919 0.0825,-2.20574 0.6754,-2.67209 0.29451,-0.23166 0.47354,-0.25119 2.30202,-0.25119 h 1.98268 l 0.467,0.46699 0.467,0.467 -0.004,1.90869 c -0.005,2.07258 -0.0603,2.29808 -0.66543,2.697 -0.31069,0.20481 -0.57507,0.23242 -2.21721,0.23156 -1.25095,-6e-4 -1.96223,-0.0505 -2.16157,-0.15132 z m 57.14464,0.006 c -0.15902,-0.0841 -0.4026,-0.30569 -0.5413,-0.49248 -0.23115,-0.3113 -0.25217,-0.49857 -0.25217,-2.24657 0,-1.748 0.021,-1.93527 0.25217,-2.24657 0.42732,-0.5755 0.68307,-0.63665 2.67078,-0.63856 2.83385,-0.003 2.91101,0.0752 2.91101,2.94107 v 1.8722 l -0.41148,0.44931 -0.41147,0.44931 -1.96421,0.0326 c -1.41162,0.0234 -2.04555,-0.0104 -2.25333,-0.12029 z m -57.34304,-10.06573 c -0.53805,-0.32808 -0.64729,-0.785 -0.64678,-2.70522 3.6e-4,-1.47005 0.0318,-1.74749 0.23526,-2.08125 0.42376,-0.69499 0.75324,-0.77859 2.89956,-0.73571 l 1.91284,0.0382 0.39292,0.39292 0.39292,0.39292 0.0384,1.92504 c 0.0352,1.76738 0.0182,1.95764 -0.20755,2.32297 -0.37752,0.61084 -0.65726,0.67986 -2.75347,0.67936 -1.64427,-3.6e-4 -1.93746,-0.0301 -2.26409,-0.22925 z m 57.10227,-0.0799 c -0.5331,-0.44857 -0.64371,-0.97375 -0.59511,-2.82561 0.0378,-1.43877 0.0718,-1.65734 0.30994,-1.99122 0.42584,-0.597 0.75361,-0.66915 2.84368,-0.626 l 1.87677,0.0387 0.39292,0.39291 0.39291,0.39292 0.0388,1.87676 c 0.0619,2.99734 0.0113,3.05108 -2.8725,3.05108 -1.994,0 -2.02408,-0.004 -2.38736,-0.30959 z m -37.0723,-9.58824 c -0.56866,-0.38235 -0.69586,-0.85983 -0.69586,-2.61209 0,-1.76235 0.126,-2.22893 0.70754,-2.61997 0.40405,-0.27168 0.49409,-0.28121 2.31356,-0.24474 l 1.89314,0.0379 0.39292,0.39291 0.39292,0.39291 0.0398,1.77227 c 0.068,3.02995 -0.0433,3.15444 -2.81866,3.15513 -1.69297,3.6e-4 -1.84441,-0.0182 -2.22532,-0.27436 z m 8.80488,0.12268 c -0.15901,-0.0817 -0.4026,-0.3012 -0.54129,-0.48772 -0.22185,-0.29835 -0.25671,-0.53699 -0.28995,-1.98474 -0.045,-1.95861 0.0776,-2.46402 0.69876,-2.88205 0.40415,-0.27198 0.49358,-0.28145 2.31355,-0.24497 l 1.89315,0.0379 0.39292,0.39293 0.39292,0.39293 0.0382,1.98873 0.0383,1.98873 -0.47517,0.47518 -0.47518,0.47517 -1.84853,-0.002 c -1.22757,-10e-4 -1.94567,-0.0517 -2.13767,-0.15036 z m 8.4591,-0.0747 c -0.59303,-0.36163 -0.67396,-0.72407 -0.6306,-2.82427 l 0.0387,-1.87676 0.39291,-0.39292 0.39291,-0.39292 1.81614,-0.0389 c 2.92515,-0.0627 2.99142,5.2e-4 2.99142,2.85517 0,2.84532 -0.0515,2.89771 -2.85086,2.897 -1.52946,-3.6e-4 -1.8324,-0.0323 -2.15067,-0.22635 z m -37.03902,-0.21152 c -0.75727,-0.38267 -0.83848,-0.63193 -0.87618,-2.68916 -0.0309,-1.68707 -0.0114,-1.9011 0.20518,-2.24955 0.43254,-0.69593 0.75878,-0.77857 2.90411,-0.73571 l 1.91284,0.0382 0.39292,0.39293 0.39292,0.39293 0.0341,1.95268 c 0.0313,1.79459 0.0141,1.98492 -0.21314,2.35086 -0.38736,0.6239 -0.83911,0.74566 -2.73405,0.73686 -1.23013,-0.006 -1.75092,-0.0547 -2.01868,-0.19005 z m 57.25694,0.083 c -0.32924,-0.13619 -0.73954,-0.59769 -0.89414,-1.00574 -0.0706,-0.18624 -0.12711,-1.02525 -0.12566,-1.86446 0.002,-1.23813 0.0457,-1.62072 0.23112,-2.02908 0.35621,-0.78457 0.65457,-0.88006 2.74967,-0.88006 1.66669,0 1.82106,0.0192 2.19947,0.27426 0.64409,0.43405 0.70751,0.67312 0.70897,2.67279 0.001,1.57927 -0.028,1.85234 -0.23348,2.18941 -0.40363,0.66196 -0.74815,0.75855 -2.6753,0.75001 -0.94604,-0.004 -1.82833,-0.0524 -1.96065,-0.10713 z m -37.44678,-10.11278 c -0.61296,-0.37371 -0.74456,-0.84091 -0.74456,-2.64325 0,-2.67855 0.21024,-2.88577 2.92849,-2.88645 2.70521,-6.9e-4 2.84532,0.14145 2.84532,2.88645 0,2.73346 -0.1547,2.88717 -2.90509,2.88646 -1.51896,-3.7e-4 -1.77375,-0.0296 -2.12416,-0.24321 z m 8.66071,0.005 c -0.64947,-0.40338 -0.76741,-0.86606 -0.72309,-2.8366 0.0342,-1.52182 0.0676,-1.75803 0.29085,-2.05824 0.42743,-0.57483 0.68374,-0.63616 2.66657,-0.63808 l 1.83615,-0.002 0.44932,0.41176 0.44931,0.41176 v 2.05182 2.05183 l -0.39292,0.39324 -0.39292,0.39325 -1.89255,0.0342 c -1.73442,0.0313 -1.92581,0.0135 -2.29072,-0.21314 z m 8.66071,0.0764 c -0.64245,-0.35651 -0.7429,-0.71385 -0.74376,-2.64585 -10e-4,-2.8293 0.12804,-2.96523 2.82043,-2.96523 2.7493,0 2.8323,0.0872 2.8323,2.97445 0,2.08223 -0.0526,2.27292 -0.72305,2.61961 -0.45927,0.23749 -3.76439,0.25093 -4.18592,0.017 z m -17.32142,-10.30539 c -0.61309,-0.37379 -0.74557,-0.84235 -0.73777,-2.60931 0.008,-1.78694 0.1346,-2.26408 0.70265,-2.64603 0.3788,-0.25469 0.536,-0.27481 2.147,-0.27481 2.76451,0 2.91737,0.15127 2.91737,2.88691 0,2.73346 -0.1547,2.88717 -2.90509,2.88645 -1.51896,-3.6e-4 -1.77375,-0.0296 -2.12416,-0.24321 z m 8.66071,0.005 c -0.61365,-0.38114 -0.74456,-0.84666 -0.74456,-2.64779 0,-1.80113 0.13091,-2.26665 0.74456,-2.64779 0.36491,-0.22665 0.5563,-0.24445 2.29072,-0.21314 l 1.89255,0.0342 0.39292,0.39324 0.39292,0.39325 v 2.04027 2.04026 l -0.39292,0.39325 -0.39292,0.39325 -1.89255,0.0342 c -1.73442,0.0313 -1.92581,0.0135 -2.29072,-0.21313 z m 8.81832,0.12435 c -0.13232,-0.0547 -0.3759,-0.24495 -0.5413,-0.42272 -0.29052,-0.31225 -0.30201,-0.38783 -0.33893,-2.2287 -0.0582,-2.90073 0.0415,-3.00763 2.80483,-3.00763 2.77005,0 2.82676,0.0579 2.82676,2.88691 0,2.82587 -0.0635,2.89136 -2.79072,2.87928 -0.94604,-0.004 -1.82833,-0.0524 -1.96064,-0.10714 z"
     style="fill:#ffffff;stroke-width:1"
     id="path1-7" />
</svg>
