<?xml version="1.0" encoding="UTF-8" standalone="no"?>
<!-- Created with Inkscape (http://www.inkscape.org/) -->

<svg
   version="1.1"
   id="svg1"
   width="100"
   height="99.272125"
   viewBox="0 0 100 99.272125"
   xmlns="http://www.w3.org/2000/svg"
   xmlns:svg="http://www.w3.org/2000/svg">
  <defs
     id="defs1" />
  <path
     style="fill:#fdad3c;fill-opacity:1;stroke-width:0.999996"
     d="m 15.67217,99.243583 c -1.11906,-0.0958 -2.85724,-0.45879 -4.0386,-0.84338 C 5.79184,96.498463 1.594873,91.890903 0.278043,85.933753 L 0,84.675923 V 49.594383 C 0,16.248143 0.01077,14.459943 0.21766,13.443053 0.927009,9.9565727 2.456311,7.1083727 4.91598,4.6928327 c 2.25391,-2.21348 4.85632,-3.60305 8.2848,-4.42369998 0.85704,-0.20515 2.73898,-0.21854 36.10626,-0.25695 26.55364,-0.0306 35.46865,-0.006 36.28708,0.10172 1.74416,0.22865 3.46381,0.76562 5.18387,1.61869998 4.12432,2.0455 7.09911,5.50547 8.49183,9.8768203 0.77316,2.42672 0.72915,0.13841 0.72993,37.94285 7.2e-4,33.53676 -0.005,34.47241 -0.23325,35.80512 -0.39425,2.30611 -1.28361,4.46952 -2.66865,6.49156 -2.51899,3.67753 -6.21247,6.08618 -10.96122,7.14823 l -1.14528,0.25614 -34.41848,0.0158 c -18.93017,0.009 -34.63549,-0.003 -34.9007,-0.0255 z"
     id="path1" />
  <path
     d="m 29.21753,81.938113 c 0.71516,-0.3402 1.31236,-0.96642 1.6904,-1.77258 l 0.31584,-0.67347 0.0322,-13.28221 0.0322,-13.28219 0.57057,-0.18608 c 3.59011,-1.17085 9.46576,-1.47962 13.89193,-0.73002 2.56445,0.4343 4.32253,0.97025 7.29357,2.22343 4.6327,1.95406 8.04507,2.65253 12.96042,2.65283 3.31004,2.5e-4 5.93535,-0.33003 8.76566,-1.10263 1.63265,-0.44567 1.963,-0.69074 1.963,-1.45625 0,-0.49587 -0.0803,-0.61439 -1.65859,-2.447 -6.87271,-7.98026 -8.33603,-9.69614 -8.44896,-9.90714 -0.16227,-0.30321 -0.009,-0.52136 1.65026,-2.34289 3.09659,-3.40023 6.02452,-7.37604 7.84282,-10.64967 0.96518,-1.7377 0.97989,-2.40396 0.0616,-2.78767 -0.376,-0.1571 -0.51809,-0.14593 -1.58765,0.12487 -3.08073,0.77998 -5.99364,1.15309 -9.00231,1.15309 -4.23369,0 -7.62036,-0.68853 -12.0037,-2.4404 -4.82856,-1.92982 -7.12037,-2.47903 -11.42487,-2.73789 -3.22784,-0.19411 -7.08559,0.16983 -9.63679,0.90914 -0.55196,0.15996 -1.05276,0.29083 -1.1129,0.29083 -0.0602,0 -0.12713,-1.01718 -0.14888,-2.26041 -0.0383,-2.19099 -0.0498,-2.28144 -0.37588,-2.94535 -0.61356,-1.24942 -1.72124,-1.94367 -3.09665,-1.94084 -1.365,0.003 -2.49775,0.70973 -3.0989,1.93393 l -0.33974,0.69186 -0.0311,30.01424 c -0.0342,33.09464 -0.0871,30.69508 0.7005,31.83974 0.41645,0.60532 1.30937,1.22462 1.90972,1.32455 0.23911,0.0398 0.48899,0.0928 0.55531,0.11791 0.25163,0.0951 1.22644,-0.0917 1.73096,-0.33173 z"
     style="fill:#ffffff;stroke-width:0.999996"
     id="path1-2" />
</svg>
