<?xml version="1.0" encoding="UTF-8" standalone="no"?>
<!-- Created with Inkscape (http://www.inkscape.org/) -->

<svg
   version="1.1"
   id="svg1"
   width="99.996445"
   height="100"
   viewBox="0 0 99.996445 100"
   xmlns="http://www.w3.org/2000/svg"
   xmlns:svg="http://www.w3.org/2000/svg">
  <defs
     id="defs1" />
  <path
     style="fill:#fdad3c;fill-opacity:1;stroke-width:1"
     d="M 15.16852,99.88008 C 10.42975,99.33558 6.43286,97.29831 3.78162,94.076 1.86089,91.74155 0.822418,89.28517 0.212069,85.63269 0.013315,84.4433 0,82.17808 0,49.55456 0,17.21409 0.01469,14.66397 0.207092,13.59585 0.538119,11.75818 0.984148,10.37762 1.74906,8.82313 3.29975,5.67174 5.83311,3.13933 8.944,1.630886 10.26477,0.990452 11.46764,0.606055 13.17891,0.277539 L 14.62463,0 h 34.99036 c 33.47126,0 35.05857,0.0098 36.56159,0.224852 1.95324,0.279517 3.2967,0.661725 4.7621,1.354796 1.65217,0.781408 3.06578,1.769492 4.30605,3.009842 2.30464,2.30482 3.74159,5.12288 4.4391,8.70563 l 0.25883,1.32951 0.0426,33.78171 c 0.029,22.98136 0.002,34.35683 -0.0854,35.58058 -0.28827,4.05132 -1.32896,7.10963 -3.31869,9.75274 -2.65223,3.52318 -6.58342,5.56336 -11.85498,6.15241 -1.35524,0.15144 -68.23572,0.13992 -69.55769,-0.012 z"
     id="path1" />
  <path
     d="m 61.9432,85.19961 c 0.29914,-0.13847 0.72077,-0.45324 0.93696,-0.69946 0.77382,-0.88135 0.77224,-0.86866 0.72912,-5.87761 l -0.039,-4.53243 -0.32698,-0.96692 c -0.88349,-2.61261 -2.87569,-4.6213 -5.55381,-5.59976 l -0.88302,-0.32261 h -6.58713 c -6.46798,0 -6.60244,0.005 -7.43319,0.26807 -1.47579,0.46759 -3.08705,1.57267 -4.12769,2.83097 -0.72636,0.87826 -1.54623,2.54607 -1.81498,3.69207 -0.19251,0.82091 -0.22144,1.49794 -0.22144,5.1838 v 4.23957 l 0.36546,0.59128 c 0.48172,0.7794 1.18041,1.26059 2.00494,1.38081 0.35818,0.0522 5.54625,0.088 11.52906,0.0795 10.75154,-0.0153 10.88414,-0.0184 11.42172,-0.26727 z M 33.41983,76.41676 c 0.001,-1.27664 0.30419,-3.08568 0.73022,-4.3576 0.76168,-2.27395 1.98989,-4.05631 3.75934,-5.45548 0.99874,-0.78974 3.15265,-1.98372 4.0609,-2.2511 0.28252,-0.0832 0.51368,-0.17217 0.51368,-0.19777 0,-0.0256 -0.19446,-0.25674 -0.43212,-0.51362 -2.87858,-3.11118 -3.73979,-7.54349 -2.26439,-11.65399 0.83544,-2.32754 2.36201,-4.30385 4.69331,-6.076 0.97961,-0.74464 2.33767,-1.61621 2.77171,-1.77882 0.21802,-0.0817 0.20878,-0.107 -0.12086,-0.33093 -1.2212,-0.82959 -3.18376,-1.55998 -4.83181,-1.7982 -1.37707,-0.19905 -17.15736,-0.10431 -18.00599,0.1081 -3.09606,0.77493 -4.84097,1.7333 -6.82886,3.75062 -1.80373,1.83045 -3.06574,3.99361 -3.72128,6.37852 l -0.32483,1.18174 -0.0356,10.11426 c -0.0342,9.7284 -0.0267,10.13953 0.19744,10.77725 0.48856,1.39003 1.42534,2.31492 2.78546,2.75008 0.62085,0.19864 1.34125,0.21673 8.86435,0.2227 l 8.18859,0.007 z m 49.28359,0.70403 c 1.33823,-0.35625 2.32952,-1.22162 2.83766,-2.4772 l 0.27292,-0.67435 0.0377,-8.64183 c 0.0462,-10.5882 -0.003,-11.13672 -1.23849,-13.71815 -1.34823,-2.81781 -3.55615,-5.04796 -6.29282,-6.35619 -2.6159,-1.25048 -3.58141,-1.35017 -12.44908,-1.28534 -5.82379,0.0426 -7.15333,0.0837 -7.8562,0.24267 -0.91773,0.20763 -1.87472,0.52854 -2.69832,0.90486 l -0.52274,0.23884 0.87413,0.58113 c 1.85318,1.23199 3.12806,2.69209 4.10632,4.70294 1.1932,2.45264 1.58312,5.03605 1.10645,7.33083 -0.41884,2.01645 -1.46426,4.19087 -2.67763,5.56933 -0.26971,0.30641 -0.49037,0.58275 -0.49037,0.61409 0,0.0314 0.16425,0.0899 0.36502,0.13 1.18405,0.23681 3.45765,1.62488 4.87791,2.97806 1.97151,1.87838 3.03164,4.08229 3.51777,7.31309 0.10002,0.66476 0.18219,1.54858 0.18258,1.96405 l 7.1e-4,0.7554 7.70513,-0.001 c 6.22105,-10e-4 7.82767,-0.0341 8.34136,-0.1708 z M 52.45532,63.71006 c 3.9052,-1.25323 6.41634,-5.3031 5.70559,-9.20176 -0.31182,-1.71045 -1.06779,-3.11706 -2.3717,-4.41297 -1.18103,-1.17378 -2.18376,-1.76514 -3.69692,-2.18026 -1.35004,-0.37039 -3.22959,-0.29224 -4.52946,0.18831 -3.84436,1.42122 -6.20557,5.56893 -5.3866,9.46215 0.24192,1.15004 0.59322,1.99318 1.22895,2.94944 1.10279,1.65884 3.02293,3.00595 4.8803,3.42389 1.1577,0.2605 2.95189,0.16206 4.16984,-0.2288 z M 67.80514,40.89961 c 4.13743,-0.50703 7.51794,-2.8502 9.28441,-6.43537 1.26639,-2.57022 1.56374,-4.94277 0.97719,-7.79689 -0.90961,-4.42606 -4.66958,-8.01513 -9.33553,-8.9112 -1.19789,-0.23005 -3.66117,-0.21901 -4.82906,0.0216 -4.20585,0.86663 -7.66852,4.26124 -8.74997,8.57799 -0.35033,1.39837 -0.38371,4.24714 -0.0647,5.52077 1.06396,4.24774 4.24597,7.55082 8.36184,8.67999 1.64777,0.45207 2.75486,0.53926 4.35582,0.34307 z M 36.94539,38.15585 c 3.47436,-0.93721 6.4463,-3.29269 7.95888,-6.30798 1.92054,-3.82858 1.76474,-8.69212 -0.39152,-12.22157 -1.24936,-2.04502 -3.84247,-4.26292 -6.00561,-5.13665 -1.7096,-0.69054 -2.45298,-0.81775 -4.78587,-0.81899 -2.03436,-10e-4 -2.24617,0.0205 -3.26334,0.33271 -1.06915,0.32814 -2.88162,1.16875 -3.61543,1.67681 -1.90949,1.32205 -3.37008,3.01108 -4.31313,4.9877 -0.78672,1.64897 -1.09326,2.90717 -1.16765,4.79265 -0.0718,1.81997 0.095,3.14152 0.58102,4.60302 1.47869,4.44675 4.93614,7.39837 9.78426,8.35283 0.16619,0.0327 1.19959,0.0438 2.29644,0.0246 1.55476,-0.0272 2.19871,-0.09 2.92195,-0.28513 z"
     style="fill:#ffffff;stroke-width:1"
     id="path1-9" />
</svg>
