<?xml version="1.0" encoding="UTF-8" standalone="no"?>
<!-- Created with Inkscape (http://www.inkscape.org/) -->

<svg
   version="1.1"
   id="svg1"
   width="100"
   height="98.249863"
   viewBox="0 0 100 98.249863"
   xmlns="http://www.w3.org/2000/svg"
   xmlns:svg="http://www.w3.org/2000/svg">
  <defs
     id="defs1">
    <clipPath
       clipPathUnits="userSpaceOnUse"
       id="clipPath4">
      <g
         id="use4">
        <path
           style="fill:#000000"
           d="m 237.5,922.92307 c -13.75,-0.4066 -29.725,-1.4582 -35.5,-2.33689 -26.53539,-4.03748 -50.01822,-15.11357 -67.75897,-31.9597 C 111.04826,866.60327 99.773178,839.91842 96.955886,800.38336 96.232425,790.23103 96.014503,696.17752 96.270324,504.5 96.614417,246.68334 96.784113,222.71622 98.327168,214 c 3.569522,-20.16309 9.972402,-37.13277 19.359952,-51.31009 6.91835,-10.44826 21.28778,-24.87656 31.73374,-31.86375 22.87859,-15.30324 42.13173,-21.02476 77.42908,-23.00988 22.71119,-1.27727 521.19574,-1.69036 558.15006,-0.46253 24.95214,0.82905 38.79323,2.49888 51.81098,6.25063 42.83423,12.34493 72.35714,41.6102 84.69056,83.95148 6.25985,21.49038 5.8171,-0.54333 6.22804,309.94414 0.38782,293.02397 0.30941,299.81073 -3.68536,319 -7.9334,38.10887 -29.94247,66.41829 -64.55011,83.02834 -21.54195,10.33913 -34.39748,12.2861 -88.99411,13.47813 -49.12073,1.07247 -496.2782,1.00251 -533,-0.0834 z M 555,807.56948 c 64.04394,-8.94595 111.51001,-30.28349 145.02217,-65.19217 17.09856,-17.81111 27.12834,-37.776 30.03158,-59.77978 3.95507,-29.97551 -10.25892,-63.1991 -36.85774,-86.15082 C 679.04116,584.2327 652.77724,570.06586 644.20034,570.0183 637.17036,569.97931 632,575.19072 632,582.31548 c 0,4.96876 3.12313,8.22132 12.3476,12.85929 34.2801,17.2357 55.62284,45.75462 55.62284,74.32523 0,42.70923 -49.67567,85.50606 -118.47044,102.06524 -20.06511,4.82976 -34.63679,6.54544 -60.65397,7.14144 -34.96022,0.80088 -55.83662,-1.4466 -85.34603,-9.18803 -37.20282,-9.75972 -67.79876,-26.40734 -88.58671,-48.20111 -24.22934,-25.40168 -29.82057,-53.97708 -15.90416,-81.2823 9.02491,-17.70769 26.06533,-33.55821 47.77082,-44.4351 12.82672,-6.42762 16.07183,-12.2498 11.21121,-20.11445 -4.53861,-7.34362 -11.83547,-7.13584 -28.09147,0.79993 -14.80758,7.22867 -25.29167,14.31805 -35.58923,24.06555 -11.05122,10.4609 -17.28165,18.86381 -23.8371,32.14883 -13.46961,27.29699 -13.45648,54.64786 0.0392,81.52356 19.51327,38.85946 66.63535,70.86468 126.64252,86.01535 13.8956,3.50838 36.67584,7.56026 49.84496,8.86584 14.34539,1.4222 62.28966,0.57985 76,-1.33527 z M 539,724.9715 c 46.94033,-5.77464 83.66377,-29.48313 91.54724,-59.10246 4.08254,-15.33871 -0.99641,-30.39438 -14.59192,-43.25526 -10.76322,-10.18163 -18.41435,-12.42237 -24.03377,-7.03862 -5.59135,5.35686 -4.76595,11.10891 2.98792,20.82217 4.68625,5.87046 7.51773,14.12022 6.85731,19.97939 -1.62444,14.41203 -18.49058,28.44925 -43.76678,36.42587 -27.57385,8.70172 -62.35819,8.9223 -90,0.57073 -21.96955,-6.63778 -38.72026,-17.93843 -44.07752,-29.73631 -3.87148,-8.52588 -1.49412,-19.77254 6.07777,-28.75236 6.89856,-8.18129 7.53028,-13.5743 2.24134,-19.13465 -5.74569,-6.04053 -16.11583,-2.22287 -27.37516,10.07788 -14.07764,15.37973 -16.41558,33.92302 -6.62669,52.55922 4.38743,8.35284 18.054,21.76411 28.31897,27.78997 C 455.5763,723.21127 497.01098,730.13704 539,724.9715 Z M 515.33553,621.06253 c 1.53123,-0.58217 7.17955,-7.49885 14.90339,-18.25 6.84071,-9.52189 21.20153,-29.46253 31.91295,-44.31253 55.85072,-77.42985 84.56835,-121.06007 94.42745,-143.46208 5.04089,-11.45399 9.67151,-26.17204 12.12488,-38.53792 2.72669,-13.74349 2.4261,-43.4057 -0.58268,-57.5 -6.94458,-32.53106 -20.20916,-57.18553 -43.07092,-80.05462 -20.5012,-20.50776 -40.05153,-32.27925 -67.2312,-40.48072 -16.35003,-4.93362 -24.02199,-5.9077 -46.3194,-5.88099 -23.11454,0.0277 -31.81281,1.30964 -50.6468,7.4643 -52.7256,17.22993 -93.35663,62.45468 -104.89377,116.75303 -2.65476,12.49437 -3.71546,39.98572 -2.03328,52.699 4.0805,30.83893 13.79908,52.48668 44.35543,98.79997 20.85241,31.60534 99.95121,142.59881 106.81358,149.88358 3.67847,3.90488 5.89962,4.52933 10.24037,2.87898 z m -17.6912,-190.60142 c -35.39696,-6.66395 -61.65325,-34.7881 -65.84687,-70.53119 -2.93127,-24.98381 5.89262,-48.93234 24.56413,-66.66845 9.14132,-8.68336 18.26565,-14.17109 30.63841,-18.42713 9.00971,-3.0992 10.24834,-3.26859 24,-3.28209 16.94348,-0.0166 22.72385,1.24224 36.5,7.94907 16.03165,7.80491 28.62591,20.54826 36.489,36.92097 6.06511,12.62892 7.44709,19.02747 7.46821,34.57771 0.0151,11.12242 -0.38458,14.89897 -2.26944,21.44341 -8.13937,28.26081 -30.35953,49.57057 -59.40777,56.97373 -8.96496,2.28479 -23.10487,2.74414 -32.13567,1.04397 z"
           id="path4" />
      </g>
    </clipPath>
  </defs>
  <path
     style="display:inline;fill:#fdad3c;fill-opacity:1;stroke:none;stroke-width:1;stroke-dasharray:none;stroke-opacity:1"
     d="M 16.992943,98.147409 C 15.33973,98.098522 13.418998,97.972084 12.724648,97.866436 9.5342009,97.380995 6.7107746,96.049277 4.5777394,94.023805 1.789188,91.375874 0.43354377,88.167457 0.09481048,83.414012 0.00782612,82.193361 -0.01837544,70.884964 0.01238286,47.838876 0.05375441,16.840638 0.07415758,13.958984 0.25968471,12.911001 0.68886137,10.486719 1.458703,8.4463925 2.5874024,6.7418016 3.4192209,5.4855691 5.1469099,3.750802 6.4028658,2.9107066 9.1536422,1.0707422 11.468517,0.38282302 15.712447,0.14414479 c 2.730649,-0.15357083 62.665266,-0.20323815 67.108419,-0.05561167 3.000087,0.09967971 4.664252,0.30044947 6.229423,0.75153606 5.150116,1.48427592 8.699763,5.00294622 10.182656,10.09379282 0.752644,2.583867 0.699411,-0.06533 0.74882,37.265715 0.04663,35.231341 0.03721,36.047338 -0.443105,38.354534 -0.953861,4.581969 -3.600092,7.985714 -7.761095,9.982801 -2.590067,1.243111 -4.135735,1.477202 -10.700087,1.620525 -5.905964,0.128946 -59.669339,0.120535 -64.084535,-0.01003 z"
     id="path6" />
  <path
     d="m 55.167127,84.278026 c 7.700236,-1.075604 13.407255,-3.641095 17.436544,-7.838293 2.055823,-2.141494 3.26174,-4.541946 3.610807,-7.187541 0.475532,-3.604065 -1.233467,-7.598658 -4.431541,-10.358227 -1.701889,-1.468535 -4.859696,-3.171866 -5.890928,-3.177585 -0.84524,-0.0047 -1.466891,0.621899 -1.466891,1.478535 0,0.597412 0.375505,0.98848 1.484597,1.54612 4.121621,2.072311 6.687737,5.501245 6.687737,8.936393 0,5.135087 -5.972687,10.280706 -14.244134,12.271677 -2.412501,0.580699 -4.164507,0.786982 -7.292648,0.858641 -4.203395,0.09629 -6.71344,-0.17393 -10.261465,-1.10471 -4.47303,-1.173447 -8.151692,-3.175051 -10.651103,-5.795396 -2.913182,-3.054136 -3.585436,-6.489861 -1.912215,-9.772867 1.085098,-2.129061 3.13393,-4.034826 5.74366,-5.342595 1.542203,-0.772816 1.932375,-1.472838 1.347965,-2.418433 -0.545694,-0.882951 -1.423022,-0.857968 -3.37754,0.09618 -1.78037,0.86913 -3.04091,1.721512 -4.279023,2.893489 -1.328729,1.257752 -2.077836,2.268065 -2.866022,3.865371 -1.6195,3.282017 -1.617922,6.570512 0.0047,9.801875 2.346152,4.672215 8.011812,8.52032 15.226693,10.34194 1.670718,0.421825 4.40967,0.908998 5.993041,1.065972 1.724799,0.170997 7.489313,0.06972 9.137757,-0.160544 z m -1.923739,-9.931057 c 5.643807,-0.694306 10.059201,-3.544864 11.007059,-7.106104 0.490859,-1.844229 -0.119802,-3.654428 -1.75444,-5.200738 -1.294101,-1.224175 -2.214024,-1.493587 -2.889668,-0.846279 -0.672268,0.644075 -0.573027,1.335665 0.359249,2.503525 0.563445,0.705827 0.903884,1.697726 0.824479,2.402195 -0.195312,1.732811 -2.22319,3.420558 -5.262239,4.379616 -3.315305,1.046239 -7.497553,1.07276 -10.821029,0.06862 -2.641479,-0.798085 -4.655478,-2.156803 -5.299601,-3.575305 -0.465482,-1.025098 -0.179644,-2.377325 0.730752,-3.457002 0.82944,-0.983666 0.905394,-1.632087 0.269485,-2.300628 -0.690825,-0.726275 -1.937665,-0.267264 -3.291415,1.2117 -1.692606,1.849161 -1.973706,4.078688 -0.796752,6.319387 0.527517,1.004292 2.170699,2.616778 3.404894,3.341289 3.48889,2.048084 8.470733,2.880795 13.519226,2.259723 z M 50.398123,61.853615 c 0.184105,-0.07 0.863223,-0.901615 1.791889,-2.194265 0.822483,-1.144851 2.549137,-3.542387 3.83701,-5.327857 6.715136,-9.309673 10.167961,-14.555494 11.353357,-17.248969 0.606085,-1.377155 1.162841,-3.14676 1.457819,-4.633555 0.32784,-1.65243 0.291698,-5.218826 -0.07006,-6.913435 -0.834972,-3.911328 -2.429821,-6.875625 -5.178574,-9.625259 -2.464934,-2.465723 -4.815542,-3.881052 -8.083453,-4.867145 -1.965823,-0.593187 -2.888251,-0.710304 -5.56915,-0.707093 -2.779146,0.0033 -3.82497,0.157463 -6.08945,0.89746 -6.339391,2.071618 -11.224608,7.509154 -12.611761,14.037643 -0.319191,1.502244 -0.446723,4.807629 -0.244468,6.336193 0.490613,3.707877 1.659114,6.310665 5.333015,11.879081 2.507161,3.800026 12.017499,17.145176 12.842587,18.02105 0.442275,0.469498 0.709332,0.544578 1.231237,0.346151 z M 48.271045,38.93691 c -4.255906,-0.801231 -7.412795,-4.1827 -7.917009,-8.480222 -0.352438,-3.003895 0.708491,-5.883314 2.953435,-8.015791 1.099094,-1.044032 2.196145,-1.703842 3.683767,-2.215562 1.083271,-0.372628 1.232196,-0.392994 2.885608,-0.394617 2.037176,-0.002 2.732171,0.149359 4.388528,0.955746 1.927544,0.938412 3.441798,2.470592 4.387206,4.439143 0.72923,1.518421 0.895391,2.287742 0.89793,4.157404 0.0018,1.337289 -0.04624,1.791357 -0.272863,2.578219 -0.978626,3.397901 -3.650237,5.960051 -7.142813,6.85016 -1.07789,0.274708 -2.777983,0.329938 -3.863789,0.12552 z"
     style="display:inline;fill:#ffffff;fill-opacity:1;stroke:none;stroke-width:1;stroke-dasharray:none;stroke-opacity:1"
     id="path1" />
</svg>
