<?xml version="1.0" encoding="UTF-8" standalone="no"?>
<!-- Created with Inkscape (http://www.inkscape.org/) -->

<svg
   version="1.1"
   id="svg1"
   width="99.999985"
   height="99.651466"
   viewBox="0 0 99.999985 99.651466"
   xmlns="http://www.w3.org/2000/svg"
   xmlns:svg="http://www.w3.org/2000/svg">
  <defs
     id="defs1" />
  <path
     style="fill:#fdad3c;fill-opacity:1;stroke-width:0.999999"
     d="m 15.436177,99.531891 c -7.5920202,-0.6737 -13.5527492,-5.80559 -15.01569017,-12.92776 -0.434481,-2.11521 -0.447655,-3.35491 -0.403575,-37.97526 l 0.04324,-33.96468 0.260208,-1.32721 c 0.640695,-3.26793 1.87877497,-5.7067396 4.05523697,-7.9881296 2.91779,-3.05845 6.6102302,-4.79102505 11.1224602,-5.21891005 1.8436,-0.174824 66.55567,-0.172503 68.46591,0.0025 4.66406,0.427179 8.26297,1.94674005 11.152,4.70867005 2.41319,2.30701 3.97498,5.2427296 4.6161,8.6768996 0.20106,1.07698 0.21635,3.20544 0.25312,35.23156 0.04,34.85228 0.0279,35.95695 -0.41668,38.11249 -0.80553,3.90525 -3.23818,7.52521 -6.52944,9.71629 -2.61603,1.74156 -5.43691,2.68201 -8.88438,2.96195 -1.88924,0.15342 -66.98475,0.14549 -68.71852,-0.008 z"
     id="path1" />
  <path
     d="m 75.740087,81.771561 c 0.90878,-0.47863 1.64818,-1.203 2.03779,-1.99636 l 0.33428,-0.68069 -6.1e-4,-6.21378 c -6e-4,-6.00894 -0.01,-6.25456 -0.27373,-7.4504 -1.77318,-8.0291 -7.56846,-14.04471 -15.41091,-15.9968 -2.53608,-0.63126 -2.38496,-0.62368 -12.42757,-0.62368 -9.37336,0 -9.41675,10e-4 -10.79871,0.2807 -8.72464,1.76503 -15.08495,7.97902 -16.91728,16.5281 -0.22888,1.06789 -0.25505,1.67206 -0.30268,6.98863 -0.0579,6.45994 -0.0482,6.56366 0.71919,7.70545 0.21625,0.32177 0.65808,0.78444 0.98184,1.02817 1.17694,0.886 -1.05848,0.81923 26.55895,0.79333 l 24.85514,-0.0233 z m -22.89647,-36.83263 c 4.63571,-0.77814 8.99846,-3.75845 11.38134,-7.77489 4.395,-7.40795 2.12033,-17.13053 -5.11613,-21.86778 -1.69552,-1.10995 -3.5508,-1.85894 -5.8066,-2.34418 -1.4189,-0.30521 -4.82498,-0.30521 -6.24389,0 -3.33415,0.7172 -5.89409,2.03855 -8.17622,4.22029 -2.49105,2.38145 -4.10416,5.2688 -4.81783,8.62356 -0.29377,1.38088 -0.35659,4.04926 -0.12995,5.5188 1.08371,7.02649 6.43731,12.44618 13.47086,13.63714 1.30987,0.2218 4.07925,0.21521 5.43842,-0.0129 z"
     style="fill:#ffffff;stroke-width:0.999999"
     id="path1-8" />
</svg>
