<?xml version="1.0" encoding="UTF-8" standalone="no"?>
<!-- Created with Inkscape (http://www.inkscape.org/) -->

<svg
   version="1.1"
   id="svg1"
   width="99.999985"
   height="99.925575"
   viewBox="0 0 99.999985 99.925575"
   xmlns="http://www.w3.org/2000/svg"
   xmlns:svg="http://www.w3.org/2000/svg">
  <defs
     id="defs1" />
  <path
     style="fill:#fdad3c;fill-opacity:1;stroke-width:1"
     d="M 15.43461,99.89366 C 12.69727,99.59472 9.910936,98.5887 7.597172,97.0639 6.185524,96.13361 3.891387,93.89074 2.967732,92.53792 1.742099,90.74282 0.71730697,88.29153 0.25744697,86.05497 c -0.192912,-0.93824 -0.208759,-3.20926 -0.246533,-35.33031 -0.02833,-24.0941 -0.0023,-34.67929 0.08739,-35.50726 C 0.91739097,7.654167 6.276849,1.806778 13.84209,0.222352 14.86843,0.007403 16.07217,0 49.99816,0 h 35.09438 l 1.28717,0.275459 c 2.36238,0.505562 4.69548,1.512848 6.54158,2.82424 3.82764,2.718989 6.43648,7.346299 6.97043,12.363461 0.10182,0.95669 0.12653,10.0678 0.0961,35.43844 l -0.0409,34.15067 -0.25098,1.13275 c -0.9387,4.23656 -3.01248,7.65854 -6.1043,10.07282 -2.20451,1.7214 -4.3779,2.72197 -7.37845,3.39683 l -1.12067,0.25205 -34.62252,0.016 c -19.04239,0.009 -34.80833,-0.004 -35.03541,-0.0291 z"
     id="path1" />
  <path
     d="M 55.18859,83.98314 C 56.70082,83.38892 56.9254,83.17805 70.36116,69.73658 82.70566,57.38685 83.37208,56.69873 83.76756,55.89383 84.69867,53.99874 84.58856,51.87615 83.4671,50.10162 83.24042,49.74294 77.02538,43.4288 68.06021,34.44906 56.53982,22.90994 52.87159,19.30294 52.34038,18.99161 51.95928,18.76825 51.26311,18.46469 50.79332,18.31702 L 49.93918,18.04854 H 35.78346 c -16.0246,0 -14.74055,-0.0781 -16.04273,0.97598 -0.79092,0.64024 -1.34123,1.38921 -1.73239,2.35779 l -0.27342,0.67702 v 13.38895 13.38895 l 0.27071,0.99048 c 0.29164,1.06707 0.73163,2.03584 1.33075,2.93006 0.51423,0.76752 29.12332,29.40922 30.02823,30.06246 1.82947,1.32067 4.21186,1.79638 5.82398,1.16291 z M 31.30081,40.06163 c -2.938,-0.85669 -4.96736,-3.44349 -5.10608,-6.50865 -0.0653,-1.44275 0.10195,-2.22842 0.74979,-3.52255 0.89026,-1.77839 2.54483,-3.11249 4.46955,-3.60387 0.89989,-0.22975 2.52818,-0.23011 3.43038,-8.3e-4 2.49916,0.63528 4.5461,2.64743 5.17568,5.08772 0.23718,0.91934 0.24041,2.61843 0.007,3.51574 -0.61724,2.36972 -2.71041,4.45566 -5.08615,5.06858 -0.96477,0.2489 -2.72206,0.23143 -3.63986,-0.0362 z"
     style="fill:#ffffff;stroke-width:1"
     id="path1-9" />
</svg>
