<?xml version="1.0" encoding="UTF-8" standalone="no"?>
<!-- Created with Inkscape (http://www.inkscape.org/) -->

<svg
   version="1.1"
   id="svg1"
   width="99.428497"
   height="100"
   viewBox="0 0 99.428497 100"
   xmlns="http://www.w3.org/2000/svg"
   xmlns:svg="http://www.w3.org/2000/svg">
  <defs
     id="defs1" />
  <path
     style="fill:#fdad3c;fill-opacity:1;stroke-width:1"
     d="M 14.09668,99.85544 C 10.52297,99.24901 7.308757,97.57943 4.80073,95.02678 2.415761,92.59939 1.049953,90.02708 0.264302,86.48305 L 0,85.29079 V 49.98988 14.68897 L 0.272089,13.4585 C 1.04563,9.960334 2.462549,7.34692 4.906586,4.91048 7.423616,2.401272 10.43453,0.834053 13.91899,0.219406 15.11084,0.009167 16.61293,0 49.87142,0 c 32.92322,0 34.76346,0.01095 35.77475,0.212808 7.47653,1.492369 12.83666,7.242806 13.6865,14.683102 0.0861,0.75361 0.11285,11.94158 0.0856,35.80473 l -0.0396,34.70861 -0.25072,1.12958 c -1.51346,6.81858 -6.21349,11.52998 -13.18798,13.21991 -0.84435,0.20458 -2.53875,0.21573 -35.89095,0.23612 -29.01251,0.0177 -35.16699,-0.006 -35.95243,-0.13942 z"
     id="path1" />
  <path
     d="m 26.95325,79.89982 c 0.27581,-0.0791 0.94847,-0.66045 2.18998,-1.89266 l 1.79191,-1.77851 h 18.72162 c 18.18582,0 18.7297,0.006 19.00413,0.22409 0.15537,0.12325 0.96944,0.9194 1.80903,1.76921 0.83959,0.84983 1.66901,1.60415 1.84315,1.67628 0.21891,0.0907 1.83146,0.12047 5.22566,0.0965 4.46022,-0.0315 4.93715,-0.0538 5.21655,-0.2436 0.57159,-0.38841 0.58094,-0.48344 0.58094,-5.90477 V 68.75068 L 82.42489,67.78089 C 81.92365,67.24751 81.0976,66.38465 80.58924,65.86343 l -0.92432,-0.94768 -4.8e-4,-14.91827 -4.8e-4,-14.91827 1.83613,-1.85881 1.83612,-1.85881 v -5.11418 c 0,-5.68492 9.9e-4,-5.67632 -0.77405,-6.0002 -0.60109,-0.25115 -9.86978,-0.24783 -10.33741,0.004 -0.17593,0.0947 -0.95825,0.81965 -1.73847,1.61114 -0.78024,0.79149 -1.5706,1.56697 -1.75637,1.72329 l -0.33776,0.2842 H 49.66339 30.93463 l -1.87884,-1.86573 -1.87885,-1.86574 -4.82247,-0.0364 c -5.32391,-0.0402 -5.57492,-0.0146 -5.95306,0.60553 -0.21938,0.3598 -0.23083,0.63275 -0.23125,5.5131 l -4.8e-4,5.13456 1.83613,1.86924 1.83611,1.86923 v 14.89876 14.89875 l -1.21421,1.24436 c -0.66781,0.6844 -1.41756,1.43229 -1.6661,1.66198 -0.82106,0.75878 -0.79193,0.5326 -0.79193,6.14846 0,4.56812 0.0199,5.10244 0.20016,5.36617 0.21918,0.32074 0.44342,0.48917 0.80674,0.60597 0.38642,0.12422 9.33822,0.10773 9.77664,-0.018 z M 25.40955,71.0513 C 25.31185,71.0151 25.13857,70.90425 25.02456,70.80492 24.82861,70.63423 24.81725,69.49679 24.81725,50.04911 V 29.47389 l 0.24935,-0.22566 c 0.24322,-0.22012 0.83988,-0.2265 24.25458,-0.25947 13.20286,-0.0186 24.18143,-0.002 24.39681,0.0362 0.21538,0.0385 0.49524,0.17366 0.62192,0.30034 0.22632,0.22634 0.2303,0.58411 0.2303,20.71067 0,19.98818 -0.005,20.48708 -0.22644,20.76001 l -0.22645,0.27967 -24.26504,0.0207 c -13.34577,0.0113 -24.345,-0.009 -24.44273,-0.045 z m 45.01458,-4.06248 c 0.22492,-0.22492 0.23692,-0.39487 0.23692,-3.35309 0,-3.04742 -0.006,-3.12398 -0.26653,-3.47113 -0.14659,-0.19524 -2.02085,-2.42468 -4.16503,-4.95431 -3.59746,-4.24418 -3.9483,-4.62215 -4.54354,-4.89465 -0.51698,-0.23668 -0.7535,-0.28045 -1.19133,-0.22043 -0.723,0.0991 -1.17295,0.41446 -2.45342,1.71961 -1.08531,1.10623 -1.47615,1.32686 -2.16171,1.22032 -0.30333,-0.0471 -0.52132,-0.29655 -8.68013,-9.93117 -1.82619,-2.15653 -2.13203,-2.35587 -3.60629,-2.35042 -1.48736,0.006 -1.85162,0.25894 -3.63659,2.53043 -2.49097,3.16989 -6.10765,7.75988 -8.69084,11.02967 l -2.47999,3.13918 -0.0344,4.44222 c -0.0189,2.44323 -0.006,4.55844 0.0298,4.70049 0.0353,0.14203 0.14788,0.34193 0.25017,0.44421 0.16755,0.16756 2.21451,0.18599 20.671,0.18599 20.32707,0 20.48684,-0.002 20.72193,-0.23692 z M 62.66977,45.12803 c 0.94028,-0.24332 1.84685,-0.80284 2.5604,-1.58022 0.71481,-0.77875 0.99297,-1.30646 1.23924,-2.35102 1.07233,-4.54805 -3.5092,-8.22434 -7.75952,-6.22636 -0.87315,0.41044 -2.12433,1.66111 -2.53429,2.53327 -1.47333,3.13427 0.19249,6.68019 3.58719,7.63579 0.74587,0.20996 2.07152,0.20473 2.90698,-0.0114 z"
     style="fill:#ffffff;stroke-width:1"
     id="path1-4" />
</svg>
