<?xml version="1.0" encoding="UTF-8" standalone="no"?>
<svg
   class="svg-icon"
   fill="#ff972c"
   viewBox="0 0 100 100"
   version="1.1"
   id="svg4"
   width="100"
   height="100"
   xmlns="http://www.w3.org/2000/svg"
   xmlns:svg="http://www.w3.org/2000/svg">
  <defs
     id="defs4" />
  <circle
     r="50"
     cx="50"
     cy="50"
     id="circle"
     style="fill:#79a7d1;fill-opacity:1;stroke-width:1" />
  <path
     class="st0"
     d="M 89.610745,48.006656 C 88.738387,47.010424 87.2143,46.918747 86.21791,47.7984 l -7.085444,6.272566 -20.014571,17.709803 c -1.261428,1.11281 -2.867359,1.709978 -4.517858,1.709978 -0.480749,0 -0.961655,-0.04711 -1.444783,-0.148776 L 41.715479,70.806742 27.901465,67.758409 18.213859,65.614631 16.828556,65.304865 c -0.438716,-0.148777 -0.827788,-0.341964 -1.169752,-0.597327 -0.550219,-0.399064 -0.986398,-0.916927 -1.286171,-1.511716 -0.307387,-0.597327 -0.468377,-1.261428 -0.468377,-1.93806 0,-0.413815 0.06947,-0.847614 0.193346,-1.271421 0.151156,-0.458543 0.366866,-0.872357 0.631904,-1.239223 0.389071,-0.55022 0.916927,-0.986398 1.511716,-1.283793 0.587334,-0.309766 1.249057,-0.468376 1.928068,-0.468376 0.114041,0 0.228081,0.01 0.341964,0.01 l 9.985,2.15615 23.157119,5.008599 c 2.867358,0.629525 5.858751,-0.148776 8.05947,-2.096671 L 73.950664,49.530426 88.488259,36.725174 c 1.305998,-1.15738 1.856217,-2.946664 1.410205,-4.62952 C 89.462285,30.398047 88.10918,29.101882 86.40158,28.735016 L 84.589932,28.345945 71.383079,25.490958 54.656978,21.880509 c -2.86498,-0.629524 -5.856213,0.148777 -8.059471,2.09905 l -22.341702,19.625658 -6.718578,5.903162 -5.846379,5.135012 c -0.240454,0.27503 -0.446171,0.550219 -0.629525,0.847614 -0.104048,0.126412 -0.195725,0.240453 -0.28756,0.379237 -0.572425,0.780681 -1.0309681,1.672864 -1.3407342,2.64927 -0.2875606,0.904555 -0.423807,1.834012 -0.423807,2.738567 0,1.960266 0.6295247,3.829014 1.7421762,5.365473 0.560054,0.78068 1.236686,1.467146 2.029738,2.039571 0.778142,0.574962 1.672864,1.033505 2.64689,1.3309 l 0.104049,0.03473 10.190718,2.235455 9.65287,2.109043 16.760678,3.667865 c 0.812879,0.183354 1.638128,0.265197 2.463378,0.265197 2.80788,0 5.548827,-1.008604 7.704976,-2.902095 L 62.87712,74.901111 82.777809,57.280447 89.40471,51.411863 c 0.996549,-0.884888 1.088226,-2.406596 0.206035,-3.405207 z"
     id="path1-3"
     style="fill:#ffffff;fill-opacity:1;stroke-width:1.56251" />
</svg>
