<?xml version="1.0" encoding="UTF-8" standalone="no"?>
<svg
   class="svg-icon"
   fill="#6696dd"
   viewBox="0 0 100 100"
   version="1.1"
   id="svg6"
   width="100"
   height="100"
   xmlns="http://www.w3.org/2000/svg"
   xmlns:svg="http://www.w3.org/2000/svg">
  <defs
     id="defs6" />
  <circle
     r="50"
     cx="50"
     cy="50"
     id="circle"
     style="fill:#79a7d1;fill-opacity:1;stroke:none;stroke-width:1" />
  <path
     id="path1"
     d="m 62.031251,24.345703 c -2.34342,0 -4.228518,1.894861 -4.228518,4.238281 v 5.517578 L 41.5625,43.310547 c -0.75604,-1.141094 -2.048246,-1.894531 -3.525391,-1.894531 h -12.90039 c -2.34342,0 -4.238281,1.894861 -4.238281,4.238281 v 8.369141 c 0,2.34342 1.894861,4.228515 4.238281,4.228515 h 12.90039 c 1.303318,0 2.457675,-0.592536 3.232422,-1.513671 l 16.533202,8.818359 v 4.843749 c 0,2.34342 1.885098,4.228515 4.228518,4.228515 h 12.90039 c 2.34342,0 4.228515,-1.885095 4.228515,-4.228515 v -8.369139 c 0,-2.34342 -1.885095,-4.228518 -4.228515,-4.228518 h -12.90039 c -1.54179,0 -2.883933,0.814932 -3.623049,2.041017 L 42.265625,51.093749 v -2.216796 l 16.494141,-9.228515 c 0.774615,0.939388 1.953309,1.533203 3.271485,1.533203 h 12.90039 c 2.34342,0 4.228515,-1.885096 4.228515,-4.228516 v -8.369141 c 0,-2.34342 -1.885095,-4.238281 -4.228515,-4.238281 z"
     style="fill:#ffffff;stroke-width:0.6" />
</svg>
