<?xml version="1.0" encoding="UTF-8" standalone="no"?>
<svg
   class="svg-icon"
   fill="#cc3820"
   viewBox="0 0 100 100"
   version="1.1"
   id="svg6"
   width="100"
   height="100"
   xmlns="http://www.w3.org/2000/svg"
   xmlns:svg="http://www.w3.org/2000/svg">
  <defs
     id="defs6" />
  <circle
     r="50"
     cx="50"
     cy="50"
     id="circle"
     style="fill:#79a7d1;fill-opacity:1;stroke:none;stroke-width:1" />
  <path
     id="path1"
     style="display:inline;fill:#ffffff;stroke-width:0.6"
     d="M 29.541015,22.34375 V 65 L 70.40039,43.037109 v -4.589844 h -15 c -0.9,0 -1.503906,-0.65414 -1.503906,-1.49414 V 22.34375 Z m 27.363281,0 V 35.449219 H 70.40039 L 57.197267,22.34375 Z m -18.99414,22.470703 h 18.085938 0.302733 c 2.1,0.3 1.797267,3.208047 -0.302733,2.998047 H 37.910156 c -2.16,0.3 -2.31,-3.058047 0,-2.998047 z m 32.490234,1.855469 -2.705079,1.474609 V 74.902343 H 32.392578 V 67.09961 l -2.792969,1.503906 v 7.792968 c 0,0.6 0.686954,1.201173 1.376954,1.201173 H 69.19922 c 0.6,0 1.20117,-0.601173 1.20117,-1.201173 z M 43.408203,61.386719 c -1.796484,0.14721 -1.672266,3.298827 0.380859,3.017577 h 18.212891 c 2.1,0.3 2.1,-3.307812 0,-3.007812 H 43.789062 c -0.136875,-0.0186 -0.261093,-0.0195 -0.380859,-0.0099 z" />
</svg>
