<?xml version="1.0" encoding="UTF-8" standalone="no"?>
<svg
   class="svg-icon"
   fill="#ff972c"
   viewBox="0 0 100 100"
   version="1.1"
   id="svg4"
   xml:space="preserve"
   width="100"
   height="100"
   xmlns="http://www.w3.org/2000/svg"
   xmlns:svg="http://www.w3.org/2000/svg"><defs
     id="defs4" /><circle
     r="50"
     cx="50"
     cy="50"
     id="circle"
     style="display:inline;fill:#79a7d1;fill-opacity:1;stroke:none;stroke-width:1" /><path
     style="display:inline;fill:#ffffff;fill-opacity:1;stroke:none;stroke-width:1;stroke-opacity:1"
     d="m 47.890782,85.03524 c -1.414218,-0.1441 -4.153827,-0.4048 -6.088032,-0.579455 -1.934211,-0.17465 -3.618414,-0.41915 -3.742667,-0.5434 -0.12425,-0.12425 0.06976,-0.23675 0.431185,-0.25005 0.62791,-0.023 0.626642,-0.037 -0.02875,-0.31875 -0.663131,-0.28495 -0.661175,-0.2954 0.05954,-0.31875 0.40987,-0.0135 1.519827,-0.2029 2.466553,-0.42145 1.978763,-0.45675 2.116127,-0.690805 2.785006,-4.74526 0.233295,-1.414205 0.565713,-3.342675 0.738716,-4.28548 0.17299,-0.94281 0.220435,-2.531795 0.105405,-3.531085 l -0.209105,-1.81689 -1.601701,0.2285 c -0.880924,0.12565 -1.748249,0.3647 -1.927387,0.531245 -0.567005,0.52713 -1.168902,0.33625 -2.930475,-0.929325 -0.971635,-0.698045 -1.71499,-1.500815 -1.71499,-1.85207 0,-1.33975 -3.621461,-1.80797 -5.314002,-0.687055 -1.217845,0.80655 -3.001215,0.89268 -3.59785,0.17375 -0.306129,-0.3688 -0.791238,-0.45325 -1.735645,-0.30225 -2.497387,0.39935 -6.043916,-2.258415 -9.269384,-6.946475 -1.004414,-1.45987 -1.070356,-1.72952 -0.895223,-3.66095 0.135705,-1.496405 0.04285,-2.36727 -0.327955,-3.08482 -0.385735,-0.74593 -0.456845,-1.51843 -0.27998,-3.042348 0.2616,-2.25383 0.728369,-2.699805 1.938574,-1.852158 0.924037,0.647228 2.042844,0.70434 2.613759,0.133415 0.619251,-0.619246 0.512221,-0.834991 -0.653603,-1.317902 -0.746619,-0.30928 -1.25909,-0.893913 -1.714198,-1.955632 -0.770189,-1.796788 -0.816508,-2.606173 -0.179391,-3.134933 0.258371,-0.214447 0.555437,-1.028319 0.660083,-1.808602 0.12484,-0.930772 0.483681,-1.66597 1.043422,-2.137654 0.469235,-0.395424 0.947032,-1.044226 1.061789,-1.441746 0.116032,-0.401942 0.810519,-0.994196 1.564648,-1.334252 0.745797,-0.336292 1.440055,-0.876309 1.542792,-1.2 0.102761,-0.323667 1.104015,-0.952851 2.225071,-1.398128 l 2.038275,-0.809609 -0.674615,-0.718104 c -0.935171,-0.995441 -0.842944,-2.012568 0.268176,-2.957591 0.744329,-0.633048 0.919692,-1.043175 0.832991,-1.948152 -0.160013,-1.66981 0.689443,-2.453523 2.659256,-2.453523 1.223341,0 2.031646,-0.27869 3.534361,-1.218655 1.828967,-1.144027 1.93528,-1.283641 1.73603,-2.279892 -0.284266,-1.421271 0.527427,-1.986866 2.851377,-1.986866 0.988777,0 2.232077,-0.16753 2.762892,-0.372285 0.530834,-0.20476 1.659382,-0.501708 2.507898,-0.659907 0.848535,-0.158195 2.208771,-0.474875 3.022772,-0.703765 1.315062,-0.36976 1.582499,-0.34269 2.39987,0.24281 1.024585,0.733947 2.882775,1.5284 5.20156,2.223873 0.846435,0.25385 1.810675,0.73329 2.142745,1.065366 0.42645,0.42643 1.14406,0.603775 2.443145,0.603775 2.12975,0 3.387695,0.775052 4.126045,2.542185 0.2545,0.609114 0.944875,1.656599 1.534145,2.327744 1.143335,1.302179 1.293205,1.960312 0.69919,3.070247 -0.3038,0.567709 -0.22505,0.853584 0.42855,1.555933 0.75755,0.814013 0.934965,0.848493 3.287525,0.638926 2.33988,-0.20846 2.53225,-0.171995 3.256965,0.61734 1.36842,1.49039 1.627305,1.892508 1.627305,2.527575 0,0.755698 0.70405,1.828814 2.50424,3.816977 1.317235,1.454788 1.350735,1.553186 1.16718,3.428395 -0.10395,1.061836 -0.08545,2.517957 0.041,3.235832 0.222,1.259431 0.31385,1.333372 2.61783,2.107889 3.286035,1.104655 4.33495,2.289898 4.230725,4.780577 -0.06875,1.642995 0.027,1.921165 0.93798,2.728115 l 1.014535,0.89858 -0.731265,0.603745 c -0.40215,0.33205 -0.90902,0.95087 -1.126285,1.375135 -0.28,0.54669 -0.701645,0.77139 -1.4477,0.77139 -0.634595,0 -1.475175,0.3555 -2.116475,0.895115 -1.010145,0.849985 -1.196235,0.883585 -3.689575,0.66609 l -2.62578,-0.22905 -0.6807,1.153695 c -0.578635,0.980715 -0.983835,1.219825 -2.70243,1.594695 -1.111955,0.2425 -2.40742,0.69643 -2.87883,1.008635 -0.4714,0.3122 -1.165645,0.6509 -1.542775,0.752635 -0.42045,0.11345 -0.7263,0.530595 -0.790715,1.07858 -0.1404,1.194245 -1.302965,2.26531 -1.85724,1.71104 -0.24785,-0.24785 -1.561815,-0.4033 -3.408655,-0.4033 -3.528245,0 -5.57629,0.708415 -5.227265,1.808085 0.1313,0.4137 -0.0682,0.94231 -0.54845,1.453545 -0.41515,0.44185 -0.682265,1.0073 -0.593655,1.256475 0.08865,0.2492 -0.0511,0.873055 -0.31,1.386385 -0.76443,1.514375 -0.47955,10.167145 0.3805,11.558785 0.1175,0.19015 0.86283,0.50946 1.656245,0.70957 2.33842,0.589815 3.13982,1.008805 2.72428,1.42434 -0.3865,0.3865 -4.77109,0.22325 -6.17224,-0.22975 -0.615475,-0.199 -0.73436,-0.14135 -0.573345,0.2782 0.169,0.4404 -0.863155,1.41725 -1.2846,1.21581 -0.05955,-0.028 -1.26533,-0.1696 -2.679542,-0.3137 z"
     id="path3" /></svg>
