<?xml version="1.0" encoding="UTF-8" standalone="no"?>
<svg
   class="svg-icon"
   fill="#ff972c"
   viewBox="0 0 100 100"
   version="1.1"
   id="svg4"
   width="100"
   height="100"
   xmlns="http://www.w3.org/2000/svg"
   xmlns:svg="http://www.w3.org/2000/svg">
  <defs
     id="defs4" />
  <circle
     r="50"
     cx="50"
     cy="50"
     id="circle"
     style="fill:#79a7d1;fill-opacity:1;stroke-width:1" />
  <path
     d="m 29,21.5 v 57 H 71 V 38 c -5.4,0 -9.6,0 -15,0 -1.8,-0.45 -1.2,-2.52 -1.2,-3.87 V 21.527 Z m 28.5,0 V 35 H 71 Z M 37.1,49.61 c 8.7,0 17.4,0 26.1,0 2.1,0.36 1.2,3.99 -1.2,3.09 -8.4,0 -16.8,0 -25.2,0 -1.8,-0.3 -1.5,-3.15 0.3,-3.12 z m 0.3,7.89 c 8.4,0 17.1,0 25.8,0 2.1,0.3 1.2,3.9 -1.2,3 -8.4,0 -16.8,0.3 -25.2,0 -1.8,-0.3 -1.5,-3.3 0.6,-3 z m 0,8.1 c 8.4,0 17.1,0 25.8,0 2.1,0.3 1.2,3.9 -1.2,3 -8.4,0 -16.8,0 -25.2,0 -1.8,-0.3 -1.5,-3.3 0.6,-3 z"
     id="path1"
     style="fill:#ffffff;stroke-width:0.6" />
</svg>
