<?xml version="1.0" encoding="UTF-8" standalone="no"?>
<svg
   class="svg-icon"
   fill="#4444cc"
   viewBox="0 0 100 100"
   version="1.1"
   id="svg8"
   width="100"
   height="100"
   xmlns="http://www.w3.org/2000/svg"
   xmlns:svg="http://www.w3.org/2000/svg">
  <defs
     id="defs8" />
  <circle
     r="50"
     cx="50"
     cy="50"
     id="circle"
     style="fill:#79a7d1;fill-opacity:1;stroke:none;stroke-width:1;stroke-opacity:1" />
  <path
     id="rect1"
     d="m 45.380859,23.691406 c -1.695239,0 -3.05664,1.361401 -3.05664,3.056641 v 13.017578 c 0,1.69524 1.361401,3.066406 3.05664,3.066406 h 1.982422 v 4.003906 C 30.600768,46.726339 26.059493,45.552842 25.673828,57.197267 h -1.748047 c -1.69524,0 -3.066406,1.371165 -3.066406,3.066405 v 13.017579 c 0,1.69524 1.371166,3.05664 3.066406,3.05664 h 8.964844 c 1.69524,0 3.066406,-1.3614 3.066406,-3.05664 V 60.263672 c 0,-1.69524 -1.371166,-3.066405 -3.066406,-3.066405 h -2.060547 c 0.275199,-5.822907 2.806392,-5.184933 16.533203,-5.107422 v 5.107422 h -1.982422 c -1.695239,0 -3.05664,1.371165 -3.05664,3.066405 v 13.017579 c 0,1.69524 1.361401,3.05664 3.05664,3.05664 h 8.964845 c 1.69524,0 3.066405,-1.3614 3.066405,-3.05664 V 60.263672 c 0,-1.69524 -1.371165,-3.066405 -3.066405,-3.066405 h -1.826172 v -5.107422 c 13.182036,-0.13227 16.054473,-0.873537 16.347654,5.107422 h -1.708983 c -1.69524,0 -3.05664,1.371165 -3.05664,3.066405 v 13.017579 c 0,1.69524 1.3614,3.05664 3.05664,3.05664 h 8.974611 c 1.695237,0 3.05664,-1.3614 3.05664,-3.05664 V 60.263672 c 0,-1.69524 -1.361403,-3.066405 -3.05664,-3.066405 H 74.287109 C 73.96382,46.210822 68.78132,46.732137 52.519532,46.835937 v -4.003906 h 1.826172 c 1.69524,0 3.066405,-1.371166 3.066405,-3.066406 V 26.748047 c 0,-1.69524 -1.371165,-3.056641 -3.066405,-3.056641 z"
     style="fill:#ffffff;stroke-width:0.6" />
</svg>
