<?xml version="1.0" encoding="UTF-8" standalone="no"?>
<svg
   class="svg-icon"
   fill="#4444cc"
   viewBox="0 0 100.00001 100"
   version="1.1"
   id="svg8"
   width="100.00001"
   height="100"
   xmlns="http://www.w3.org/2000/svg"
   xmlns:svg="http://www.w3.org/2000/svg">
  <defs
     id="defs8" />
  <path
     id="path1"
     d="m 43.631341,13.897543 c -2.32503,-1e-6 -4.192198,1.867167 -4.192198,4.192197 v 17.853674 c 0,2.32503 1.867168,4.205591 4.192198,4.205591 h 2.718902 v 5.491377 C 23.360373,45.490068 17.131991,43.88061 16.60305,59.850997 h -2.397455 c -2.32503,0 -4.205591,1.88056 -4.205591,4.20559 v 17.853674 c 0,2.32503 1.880561,4.192197 4.205591,4.192197 h 12.295328 c 2.32503,0 4.205591,-1.867167 4.205591,-4.192197 V 64.056587 c 0,-2.32503 -1.880561,-4.20559 -4.205591,-4.20559 h -2.826051 c 0.377437,-7.986146 3.848981,-7.111161 22.675371,-7.004855 v 7.004855 h -2.718902 c -2.32503,0 -4.192198,1.88056 -4.192198,4.20559 v 17.853674 c 0,2.32503 1.867168,4.192197 4.192198,4.192197 H 55.92667 c 2.32503,0 4.20559,-1.867167 4.20559,-4.192197 V 64.056587 c 0,-2.32503 -1.88056,-4.20559 -4.20559,-4.20559 h -2.504604 v -7.004855 c 18.079228,-0.181408 22.01879,-1.19806 22.420889,7.004855 h -2.343879 c -2.32503,0 -4.192197,1.88056 -4.192197,4.20559 v 17.853674 c 0,2.32503 1.867167,4.192197 4.192197,4.192197 H 85.8078 c 2.325024,0 4.192204,-1.867167 4.192204,-4.192197 V 64.056587 c 0,-2.32503 -1.86718,-4.20559 -4.192204,-4.20559 H 83.276406 C 82.833014,44.783034 75.725189,45.49802 53.422066,45.640382 v -5.491377 h 2.504604 c 2.32503,0 4.20559,-1.880561 4.20559,-4.205591 V 18.08974 c 0,-2.32503 -1.88056,-4.192197 -4.20559,-4.192197 z"
     style="fill:#808080;fill-opacity:1;stroke:none;stroke-width:0.599999" />
</svg>
