<?xml version="1.0" encoding="UTF-8" standalone="no"?>
<!-- Created with Inkscape (http://www.inkscape.org/) -->

<svg
   width="26.458334mm"
   height="26.458334mm"
   viewBox="0 0 26.458334 26.458334"
   version="1.1"
   id="svg1"
   xml:space="preserve"
   xmlns="http://www.w3.org/2000/svg"
   xmlns:svg="http://www.w3.org/2000/svg"><defs
     id="defs1"><linearGradient
       id="swatch3"><stop
         style="stop-color:#423eb1;stop-opacity:1;"
         offset="0"
         id="stop3" /></linearGradient><linearGradient
       id="swatch93"><stop
         style="stop-color:#808080;stop-opacity:1;"
         offset="0"
         id="stop93" /></linearGradient><linearGradient
       id="swatch92"
       gradientTransform="translate(-218.75001,114.56757)"><stop
         style="stop-color:#79a7d1;stop-opacity:1;"
         offset="0"
         id="stop92" /></linearGradient><linearGradient
       id="swatch83"><stop
         style="stop-color:#fdad3c;stop-opacity:1;"
         offset="0"
         id="stop83" /></linearGradient><linearGradient
       id="swatch82"
       gradientTransform="translate(-218.75647,114.56369)"><stop
         style="stop-color:#ffffff;stop-opacity:1;"
         offset="0"
         id="stop82" /></linearGradient></defs><g
     id="layer1"
     transform="translate(-218.74998,-115.5)"><path
       d="m 233.3616,138.47849 c 2.03736,-0.28459 3.54734,-0.96337 4.61342,-2.07388 0.54394,-0.56661 0.863,-1.20173 0.95536,-1.90171 0.12582,-0.95357 -0.32635,-2.01047 -1.17251,-2.74061 -0.45029,-0.38855 -1.2858,-0.83922 -1.55864,-0.84074 -0.22364,-0.001 -0.38812,0.16455 -0.38812,0.3912 0,0.15806 0.0994,0.26153 0.3928,0.40908 1.09051,0.5483 1.76947,1.45553 1.76947,2.36442 0,1.35866 -1.58028,2.7201 -3.76876,3.24688 -0.63831,0.15364 -1.10186,0.20822 -1.92952,0.22718 -1.11215,0.0255 -1.77626,-0.046 -2.71501,-0.29229 -1.18349,-0.31047 -2.1568,-0.84006 -2.8181,-1.53336 -0.77078,-0.80808 -0.94865,-1.71711 -0.50594,-2.58574 0.28709,-0.56331 0.82918,-1.06755 1.51967,-1.41356 0.40804,-0.20448 0.51128,-0.38969 0.35665,-0.63988 -0.14438,-0.23361 -0.37651,-0.227 -0.89364,0.0255 -0.47106,0.22996 -0.80457,0.45548 -1.13216,0.76557 -0.35156,0.33278 -0.54976,0.60009 -0.7583,1.02271 -0.42849,0.86837 -0.42808,1.73845 0.001,2.59342 0.62076,1.23619 2.1198,2.25433 4.02873,2.7363 0.44205,0.11161 1.16673,0.24051 1.58566,0.28204 0.45635,0.0452 1.98155,0.0185 2.4177,-0.0425 z m -0.50899,-2.62759 c 1.49326,-0.1837 2.6615,-0.93791 2.91229,-1.88016 0.12987,-0.48795 -0.0317,-0.9669 -0.4642,-1.37603 -0.3424,-0.32389 -0.58579,-0.39518 -0.76456,-0.22391 -0.17787,0.17041 -0.15161,0.3534 0.095,0.66239 0.14908,0.18675 0.23916,0.44919 0.21815,0.63558 -0.0517,0.45848 -0.58822,0.90502 -1.3923,1.15878 -0.87718,0.27681 -1.98373,0.28383 -2.86307,0.0182 -0.69889,-0.21116 -1.23176,-0.57066 -1.40218,-0.94597 -0.12316,-0.27122 -0.0475,-0.629 0.19334,-0.91467 0.21946,-0.26026 0.23955,-0.43182 0.0713,-0.6087 -0.18278,-0.19216 -0.51267,-0.0707 -0.87085,0.32059 -0.44784,0.48926 -0.52221,1.07916 -0.21081,1.67201 0.13958,0.26572 0.57433,0.69235 0.90088,0.88405 0.9231,0.54189 2.24122,0.76221 3.57696,0.59788 z m -0.75281,-3.30554 c 0.0487,-0.0185 0.2284,-0.23855 0.47411,-0.58056 0.21761,-0.30291 0.67446,-0.93726 1.01521,-1.40966 1.77671,-2.46319 2.69027,-3.85115 3.00391,-4.56379 0.16036,-0.36438 0.30766,-0.83258 0.38571,-1.22596 0.0867,-0.43721 0.0772,-1.38082 -0.0185,-1.82918 -0.22092,-1.03488 -0.64289,-1.81918 -1.37016,-2.54669 -0.65218,-0.65239 -1.27411,-1.02686 -2.13875,-1.28776 -0.52012,-0.15695 -0.76418,-0.18794 -1.4735,-0.18709 -0.73532,8.8e-4 -1.01203,0.0417 -1.61117,0.23745 -1.6773,0.54812 -2.96984,1.9868 -3.33686,3.71413 -0.0845,0.39747 -0.1182,1.27202 -0.0647,1.67645 0.1298,0.98104 0.43897,1.6697 1.41102,3.14301 0.66336,1.00542 3.17963,4.53633 3.39794,4.76807 0.11702,0.12422 0.18768,0.14408 0.32576,0.0916 z m -0.56279,-6.06337 c -1.12604,-0.212 -1.9613,-1.10668 -2.0947,-2.24373 -0.0932,-0.79478 0.18745,-1.55663 0.78142,-2.12084 0.29081,-0.27624 0.58107,-0.45081 0.97467,-0.5862 0.28661,-0.0986 0.32602,-0.10398 0.76348,-0.10441 0.539,-5.3e-4 0.72289,0.0395 1.16113,0.25287 0.51,0.24829 0.91065,0.65368 1.16078,1.17452 0.19295,0.40175 0.23691,0.6053 0.23758,1.09998 4.8e-4,0.35383 -0.0122,0.47397 -0.0722,0.68216 -0.25893,0.89903 -0.96579,1.57693 -1.88987,1.81244 -0.28519,0.0727 -0.73501,0.0873 -1.0223,0.0332 z"
       style="display:inline;fill:url(#swatch83);fill-opacity:1;stroke:none;stroke-width:0.264583;stroke-dasharray:none;stroke-opacity:1"
       id="path1-60-1" /></g></svg>
